<?xml version="1.0" standalone="no"?>
<!DOCTYPE svg PUBLIC "-//W3C//DTD SVG 20010904//EN"
 "http://www.w3.org/TR/2001/REC-SVG-20010904/DTD/svg10.dtd">
<svg version="1.0" xmlns="http://www.w3.org/2000/svg"
 width="512.000000pt" height="512.000000pt" viewBox="0 0 512.000000 512.000000"
 preserveAspectRatio="xMidYMid meet">
<metadata>
Created by potrace 1.14, written by Peter Selinger 2001-2017
</metadata>
<g transform="translate(0.000000,512.000000) scale(0.100000,-0.100000)"
fill="#000000" stroke="none">
<path d="M3965 4716 c-47 -21 -54 -32 -190 -291 -32 -60 -65 -123 -75 -140 -9
-16 -39 -70 -65 -120 -26 -49 -64 -121 -85 -160 -21 -38 -89 -167 -152 -285
-63 -118 -139 -260 -168 -315 -29 -55 -60 -113 -70 -130 -9 -16 -41 -75 -70
-130 -29 -55 -65 -122 -80 -150 -15 -27 -44 -82 -65 -121 -34 -64 -41 -71 -80
-82 -83 -22 -133 -85 -142 -177 -10 -107 71 -201 181 -209 138 -11 242 119
206 255 -10 37 -8 43 111 251 67 117 132 231 144 253 54 95 316 551 325 565 5
8 32 56 60 105 27 50 62 111 78 137 15 26 68 118 117 204 225 392 218 378 211
431 -12 92 -107 146 -191 109z"/>
<path d="M504 4686 c-63 -28 -96 -103 -75 -169 8 -24 65 -86 185 -203 171
-168 606 -590 783 -760 50 -49 200 -194 332 -323 l241 -234 0 -49 c0 -112 85
-193 202 -191 40 1 68 8 93 23 173 107 104 370 -97 370 -43 0 -44 0 -258 221
-118 122 -249 256 -290 299 -41 42 -208 213 -370 380 -162 167 -365 376 -450
463 -182 188 -216 208 -296 173z"/>
<path d="M472 2290 c-97 -59 -92 -191 9 -242 32 -17 152 -18 2079 -18 1927 0
2047 1 2079 18 54 27 76 64 75 128 0 49 -4 58 -37 92 l-37 37 -2068 3 c-2049
2 -2067 2 -2100 -18z"/>
<path d="M771 1823 c11 -27 45 -109 76 -183 30 -74 61 -148 68 -165 8 -16 35
-82 60 -145 26 -63 53 -128 60 -145 7 -16 37 -90 67 -162 29 -73 55 -133 58
-133 3 0 14 21 24 48 40 99 117 288 126 307 5 11 65 156 133 323 l124 302
-408 0 -408 0 20 -47z"/>
<path d="M1880 1857 c0 -7 11 -37 25 -65 14 -29 25 -58 25 -65 0 -7 4 -17 9
-22 4 -6 36 -77 69 -160 33 -82 90 -222 127 -310 36 -88 83 -202 103 -252 20
-51 39 -93 42 -93 3 0 36 73 72 163 37 89 98 239 137 332 38 94 99 241 134
328 l65 157 -404 0 c-327 0 -404 -3 -404 -13z"/>
<path d="M3020 1803 c15 -38 83 -201 150 -363 68 -162 130 -313 139 -336 56
-143 87 -214 91 -214 3 0 23 44 44 98 22 53 47 115 57 137 10 22 39 92 64 155
26 63 53 129 60 145 7 17 31 75 53 130 22 55 61 148 86 208 l45 107 -409 0
-408 0 28 -67z"/>
<path d="M4151 1773 c22 -54 46 -111 54 -128 7 -16 70 -169 140 -340 70 -170
129 -312 131 -314 2 -2 4 194 4 437 l0 442 -184 0 -185 0 40 -97z"/>
<path d="M1685 1738 c-15 -40 -52 -129 -81 -198 -29 -69 -106 -255 -172 -415
l-119 -290 203 -3 c112 -1 296 -1 408 0 l203 3 -169 410 c-93 226 -183 445
-201 487 -18 43 -35 78 -38 78 -3 0 -18 -33 -34 -72z"/>
<path d="M2761 1627 c-40 -100 -80 -195 -87 -212 -33 -72 -234 -568 -234 -576
0 -5 180 -9 400 -9 270 0 400 3 400 10 0 6 -26 75 -58 153 -246 598 -337 817
-342 817 -3 0 -38 -82 -79 -183z"/>
<path d="M3913 1707 c-232 -562 -353 -860 -353 -868 0 -5 161 -9 400 -9 279 0
400 3 400 11 0 6 -16 50 -36 97 -20 48 -40 96 -44 107 -4 11 -15 37 -24 58
-10 20 -37 88 -62 150 -25 61 -51 126 -59 142 -7 17 -23 54 -35 84 -11 30 -29
73 -39 95 -10 23 -36 85 -57 139 -21 53 -41 97 -44 97 -3 0 -24 -46 -47 -103z"/>
<path d="M640 1272 l0 -442 180 0 c122 0 180 3 180 11 0 10 -167 423 -195 484
-8 17 -47 109 -86 205 -39 96 -73 177 -75 179 -2 2 -4 -194 -4 -437z"/>
<path d="M472 650 c-47 -29 -72 -75 -68 -128 4 -51 28 -88 76 -113 33 -18 108
-19 2080 -19 1927 0 2047 1 2079 18 52 26 76 65 75 122 -1 56 -21 92 -67 120
-31 20 -68 20 -2087 20 -2033 0 -2055 0 -2088 -20z"/>
</g>
</svg>
